<svg xmlns="http://www.w3.org/2000/svg" viewBox="0 0 200 200" fill="none">
  <defs>
    <filter id="paper" x="-5%" y="-5%" width="110%" height="110%">
      <feTurbulence type="fractalNoise" baseFrequency="0.9" numOctaves="2" seed="3"></feTurbulence>
      <feDisplacementMap in="SourceGraphic" scale="1.2"></feDisplacementMap>
    </filter>
  </defs>
  <circle cx="100" cy="100" r="86" stroke="#C8623A" stroke-width="3" stroke-linecap="round" stroke-dasharray="2 4" filter="url(#paper)"></circle>
  <circle cx="100" cy="100" r="72" fill="#F4ECE0" stroke="#2A2620" stroke-width="2.5" filter="url(#paper)"></circle>
  <g stroke="#2A2620" stroke-width="7" stroke-linecap="round" stroke-linejoin="round" fill="none" filter="url(#paper)">
    <circle cx="80" cy="113" r="14"></circle>
    <line x1="93" y1="100" x2="93" y2="128"></line>
    <line x1="93" y1="113" x2="106" y2="113"></line>
    <path d="M 106 113 L 134 113 Q 134 100, 120 100 Q 105 100, 105 115 Q 105 130, 122 130 Q 132 130, 137 124"></path>
  </g>
  <circle cx="148" cy="62" r="6" fill="#C8623A"></circle>
  <circle cx="62" cy="58" r="5" fill="#D9A55B"></circle>
  <circle cx="40" cy="120" r="4" fill="#6B7F4A"></circle>
  <path d="M 148 62 Q 105 75 62 58" stroke="#C8623A" stroke-width="1.2" stroke-dasharray="2 3" opacity="0.5" fill="none"></path>
  <path d="M 62 58 Q 35 90 40 120" stroke="#D9A55B" stroke-width="1.2" stroke-dasharray="2 3" opacity="0.5" fill="none"></path>
</svg>